{
  "version": "0.6.2c",
  "modules": [
    {
      "plugin": "Fundamental",
      "version": "0.6.2",
      "model": "VCO",
      "params": [
        {
          "paramId": 0,
          "value": 1.0
        },
        {
          "paramId": 1,
          "value": 1.0
        },
        {
          "paramId": 2,
          "value": 0.0
        },
        {
          "paramId": 3,
          "value": 0.0
        },
        {
          "paramId": 5,
          "value": 0.5
        },
        {
          "paramId": 4,
          "value": 0.496499121
        },
        {
          "paramId": 6,
          "value": 0.0
        }
      ],
      "pos": [
        50,
        0
      ]
    },
    {
      "plugin": "Core",
      "version": "0.6.2c",
      "model": "AudioInterface",
      "params": [],
      "data": {
        "audio": {
          "driver": 5,
          "deviceName": "Focusrite: Scarlett 2i2 USB",
          "offset": 0,
          "maxChannels": 8,
          "sampleRate": 44100,
          "blockSize": 256
        }
      },
      "pos": [
        0,
        0
      ]
    },
    {
      "plugin": "Fundamental",
      "version": "0.6.2",
      "model": "SEQ3",
      "params": [
        {
          "paramId": 0,
          "value": 3.1920042
        },
        {
          "paramId": 1,
          "value": 0.0
        },
        {
          "paramId": 2,
          "value": 0.0
        },
        {
          "paramId": 3,
          "value": 8.0
        },
        {
          "paramId": 4,
          "value": 4.75499916
        },
        {
          "paramId": 12,
          "value": 6.42000008
        },
        {
          "paramId": 20,
          "value": 3.40499592
        },
        {
          "paramId": 28,
          "value": 0.0
        },
        {
          "paramId": 5,
          "value": 0.0
        },
        {
          "paramId": 13,
          "value": 8.79000092
        },
        {
          "paramId": 21,
          "value": 2.83500051
        },
        {
          "paramId": 29,
          "value": 0.0
        },
        {
          "paramId": 6,
          "value": 4.83000135
        },
        {
          "paramId": 14,
          "value": 5.26500034
        },
        {
          "paramId": 22,
          "value": 4.23000002
        },
        {
          "paramId": 30,
          "value": 0.0
        },
        {
          "paramId": 7,
          "value": 4.78500032
        },
        {
          "paramId": 15,
          "value": 0.0
        },
        {
          "paramId": 23,
          "value": 0.0
        },
        {
          "paramId": 31,
          "value": 0.0
        },
        {
          "paramId": 8,
          "value": 0.0300000012
        },
        {
          "paramId": 16,
          "value": 7.3049984
        },
        {
          "paramId": 24,
          "value": 3.25500035
        },
        {
          "paramId": 32,
          "value": 0.0
        },
        {
          "paramId": 9,
          "value": 0.0
        },
        {
          "paramId": 17,
          "value": 0.0
        },
        {
          "paramId": 25,
          "value": 0.0
        },
        {
          "paramId": 33,
          "value": 0.0
        },
        {
          "paramId": 10,
          "value": 0.0450000018
        },
        {
          "paramId": 18,
          "value": 8.09998989
        },
        {
          "paramId": 26,
          "value": 2.12999988
        },
        {
          "paramId": 34,
          "value": 0.0
        },
        {
          "paramId": 11,
          "value": 5.04000044
        },
        {
          "paramId": 19,
          "value": 0.0
        },
        {
          "paramId": 27,
          "value": 0.0
        },
        {
          "paramId": 35,
          "value": 0.0
        }
      ],
      "data": {
        "running": false,
        "gates": [
          1,
          1,
          1,
          0,
          1,
          0,
          1,
          1
        ]
      },
      "pos": [
        20,
        0
      ]
    },
    {
      "plugin": "Fundamental",
      "version": "0.6.2",
      "model": "VCO",
      "params": [
        {
          "paramId": 0,
          "value": 1.0
        },
        {
          "paramId": 1,
          "value": 1.0
        },
        {
          "paramId": 2,
          "value": 0.0
        },
        {
          "paramId": 3,
          "value": 0.0
        },
        {
          "paramId": 5,
          "value": 0.5
        },
        {
          "paramId": 4,
          "value": 0.496000201
        },
        {
          "paramId": 6,
          "value": 0.0
        }
      ],
      "pos": [
        60,
        0
      ]
    },
    {
      "plugin": "Fundamental",
      "version": "0.6.2",
      "model": "ADSR",
      "params": [
        {
          "paramId": 0,
          "value": 0.182000011
        },
        {
          "paramId": 1,
          "value": 0.267499655
        },
        {
          "paramId": 2,
          "value": 0.640999734
        },
        {
          "paramId": 3,
          "value": 0.716000438
        }
      ],
      "pos": [
        42,
        0
      ]
    },
    {
      "plugin": "Fundamental",
      "version": "0.6.2",
      "model": "VCA",
      "params": [
        {
          "paramId": 0,
          "value": 0.203999937
        },
        {
          "paramId": 1,
          "value": 0.205500022
        }
      ],
      "pos": [
        70,
        0
      ]
    },
    {
      "plugin": "Fundamental",
      "version": "0.6.2",
      "model": "VCMixer",
      "params": [
        {
          "paramId": 0,
          "value": 1.0
        },
        {
          "paramId": 1,
          "value": 1.0
        },
        {
          "paramId": 2,
          "value": 1.0
        },
        {
          "paramId": 3,
          "value": 1.0
        },
        {
          "paramId": 4,
          "value": 1.0
        }
      ],
      "pos": [
        10,
        0
      ]
    },
    {
      "plugin": "Core",
      "version": "0.6.2c",
      "model": "MIDIToCVInterface",
      "params": [],
      "data": {
        "divisions": [
          24,
          6
        ],
        "midi": {
          "driver": -11,
          "deviceName": "QWERTY keyboard (US)",
          "channel": -1
        }
      },
      "pos": [
        75,
        0
      ]
    },
    {
      "plugin": "Fundamental",
      "version": "0.6.2",
      "model": "VCF",
      "params": [
        {
          "paramId": 0,
          "value": 0.26150015
        },
        {
          "paramId": 1,
          "value": 0.5
        },
        {
          "paramId": 2,
          "value": 0.343500018
        },
        {
          "paramId": 3,
          "value": 1.0
        },
        {
          "paramId": 4,
          "value": 0.0
        }
      ],
      "pos": [
        83,
        0
      ]
    }
  ],
  "wires": [
    {
      "color": "#c91847",
      "outputModuleId": 2,
      "outputId": 0,
      "inputModuleId": 4,
      "inputId": 4
    },
    {
      "color": "#0c8e15",
      "outputModuleId": 4,
      "outputId": 0,
      "inputModuleId": 5,
      "inputId": 1
    },
    {
      "color": "#0c8e15",
      "outputModuleId": 4,
      "outputId": 0,
      "inputModuleId": 5,
      "inputId": 4
    },
    {
      "color": "#c9b70e",
      "outputModuleId": 0,
      "outputId": 2,
      "inputModuleId": 5,
      "inputId": 2
    },
    {
      "color": "#c91847",
      "outputModuleId": 3,
      "outputId": 2,
      "inputModuleId": 5,
      "inputId": 5
    },
    {
      "color": "#0c8e15",
      "outputModuleId": 5,
      "outputId": 0,
      "inputModuleId": 6,
      "inputId": 1
    },
    {
      "color": "#0986ad",
      "outputModuleId": 5,
      "outputId": 1,
      "inputModuleId": 6,
      "inputId": 2
    },
    {
      "color": "#0986ad",
      "outputModuleId": 2,
      "outputId": 3,
      "inputModuleId": 0,
      "inputId": 1
    },
    {
      "color": "#c9b70e",
      "outputModuleId": 2,
      "outputId": 2,
      "inputModuleId": 3,
      "inputId": 1
    },
    {
      "color": "#c91847",
      "outputModuleId": 7,
      "outputId": 0,
      "inputModuleId": 0,
      "inputId": 0
    },
    {
      "color": "#0c8e15",
      "outputModuleId": 7,
      "outputId": 0,
      "inputModuleId": 3,
      "inputId": 0
    },
    {
      "color": "#c9b70e",
      "outputModuleId": 6,
      "outputId": 0,
      "inputModuleId": 8,
      "inputId": 3
    },
    {
      "color": "#c91847",
      "outputModuleId": 8,
      "outputId": 0,
      "inputModuleId": 1,
      "inputId": 0
    },
    {
      "color": "#0c8e15",
      "outputModuleId": 8,
      "outputId": 0,
      "inputModuleId": 1,
      "inputId": 1
    },
    {
      "color": "#0986ad",
      "outputModuleId": 4,
      "outputId": 0,
      "inputModuleId": 8,
      "inputId": 0
    },
    {
      "color": "#c91847",
      "outputModuleId": 2,
      "outputId": 1,
      "inputModuleId": 4,
      "inputId": 1
    }
  ]
}